<svg xmlns="http://www.w3.org/2000/svg" viewBox="0 0 120 100" fill="none">
  <defs>
    <!-- Circuit line gradient -->
    <linearGradient id="circuit-grad" x1="0%" y1="100%" x2="100%" y2="0%">
      <stop offset="0%" stop-color="#3b82f6" />
      <stop offset="100%" stop-color="#8b5cf6" />
    </linearGradient>

    <!-- Swoosh/Orbit ring gradient -->
    <linearGradient id="swoosh-grad" x1="0%" y1="100%" x2="100%" y2="0%">
      <stop offset="0%" stop-color="#a855f7" />
      <stop offset="100%" stop-color="#4f46e5" />
    </linearGradient>

    <!-- Mask to cut a clean gap in the right leg of the A symbol -->
    <mask id="right-leg-mask">
      <rect x="0" y="0" width="120" height="100" fill="#FFFFFF" />
      <polygon points="35,62 70,21 80,30 45,71" fill="#000000" />
    </mask>
  </defs>

  <!-- Layer 1: Left Leg of the 'A' (purple) -->
  <path
    d="M 50,15 L 18,85 L 30,85 L 50,48 Z"
    fill="#7c3aed"
  />

  <!-- Layer 2: Swoosh / Orbital Ring -->
  <path
    d="M 10,72 C 10,85 30,90 55,87 C 80,84 105,74 108,62 C 110,54 95,50 75,56 C 55,62 15,68 10,72 Z"
    fill="url(#swoosh-grad)"
  />

  <!-- Layer 3: Right Leg of the 'A' (purple, masked to create gap) -->
  <path
    d="M 50,15 L 75,85 L 62,85 L 45,48 Z"
    fill="#7c3aed"
    mask="url(#right-leg-mask)"
  />

  <!-- Layer 4: Circuit lines -->
  <path
    d="M 32,60 L 56,32 L 72,32 L 84,18"
    stroke="url(#circuit-grad)"
    stroke-width="3.5"
    stroke-linecap="round"
    stroke-linejoin="round"
  />
  <path
    d="M 28,66 L 52,38 L 68,38 L 80,24"
    stroke="url(#circuit-grad)"
    stroke-width="3.5"
    stroke-linecap="round"
    stroke-linejoin="round"
  />
  <path
    d="M 24,72 L 48,44 L 64,44 L 76,30"
    stroke="url(#circuit-grad)"
    stroke-width="3.5"
    stroke-linecap="round"
    stroke-linejoin="round"
  />

  <!-- Circular terminal nodes -->
  <circle
    cx="84"
    cy="18"
    r="4.5"
    fill="#a855f7"
  />
  <circle
    cx="80"
    cy="24"
    r="4.5"
    fill="#a855f7"
  />
  <circle
    cx="76"
    cy="30"
    r="4.5"
    fill="#a855f7"
  />
</svg>
